<mxfile host="app.diagrams.net" modified="2023-08-22T19:43:43.992Z" agent="Mozilla/5.0 (Windows NT 10.0; Win64; x64) AppleWebKit/537.36 (KHTML, like Gecko) Chrome/116.0.0.0 Safari/537.36" version="21.6.8" etag="IuE_Bobyd3pToGvY3EUL" type="github">
  <diagram name="PÃ¡gina-1" id="211LOxD9ouiwY2qLqykh">
    <mxGraphModel>
      <root>
        <mxCell id="0" />
        <mxCell id="1" parent="0" />
      </root>
    </mxGraphModel>
  </diagram>
</mxfile>
